<?xml version="1.0" encoding="UTF-8" standalone="no"?>
<svg
   xmlns:dc="http://purl.org/dc/elements/1.1/"
   xmlns:cc="http://creativecommons.org/ns#"
   xmlns:rdf="http://www.w3.org/1999/02/22-rdf-syntax-ns#"
   xmlns:svg="http://www.w3.org/2000/svg"
   xmlns="http://www.w3.org/2000/svg"
   height="160"
   width="160"
   id="svg2"
   y="0px"
   x="0px"
   viewBox="0 0 160 160"
   style="clip-rule:evenodd;fill-rule:evenodd;image-rendering:optimizeQuality;shape-rendering:geometricPrecision;text-rendering:geometricPrecision"
   version="1.1"
   xml:space="preserve"><metadata
     id="metadata18"><rdf:RDF><cc:Work
         rdf:about=""><dc:format>image/svg+xml</dc:format><dc:type
           rdf:resource="http://purl.org/dc/dcmitype/StillImage" /><dc:title></dc:title></cc:Work></rdf:RDF></metadata><defs
     id="defs4"><style
       id="style6"
       type="text/css">
   
    .fil0 {fill:black}
   
  </style></defs><g
     transform="translate(12,6)"
     id="g8"><path
       style="fill:#000000"
       id="path10"
       d="m 68,2 0,0 C 58,2 49,5 26,10 l 0,10 42,22 0,0 0,0 0,0 0,0 42,-22 0,-10 C 88,5 78,2 68,2 Z m 0,31 -29,-15 0,0 0,0 0,0 0,0 c 32,-8 27,-8 58,0 l 0,0 0,0 0,0 0,0 -29,15 z m 63,26 -1,53 -25,20 0,-49 15,-11 0,-5 11,-8 z M 68,45 87,35 l -9,38 0,33 -10,0 0,0 0,0 0,0 -10,0 0,-33 -9,-38 19,10 z m 0,81 11,0 4,22 -15,0 0,0 0,0 0,0 -15,0 4,-22 11,0 0,0 0,0 0,0 z m 0,-17 14,0 0,-36 19,10 0,52 -15,10 -4,-22 -14,0 0,0 0,0 0,0 -14,0 -4,22 -14,-10 0,-52 18,-10 0,36 14,0 0,0 0,0 0,0 z m 24,-76 21,-11 0,-10 23,-12 -5,56 -13,9 -35,6 9,-38 z M 5,59 6,112 32,132 32,83 16,72 16,67 5,59 Z M 44,33 23,22 23,12 0,0 5,56 18,65 54,71 44,33 Z"
       class="fil0" /></g></svg>